<?xml version="1.0" standalone="no"?>
<!DOCTYPE svg PUBLIC "-//W3C//DTD SVG 20010904//EN"
 "http://www.w3.org/TR/2001/REC-SVG-20010904/DTD/svg10.dtd">
<svg version="1.0" xmlns="http://www.w3.org/2000/svg"
 width="700.000000pt" height="700.000000pt" viewBox="0 0 700.000000 700.000000"
 preserveAspectRatio="xMidYMid meet">
<metadata>
Created by potrace 1.14, written by Peter Selinger 2001-2017
</metadata>
<g transform="translate(0.000000,700.000000) scale(0.100000,-0.100000)"
fill="#000000" stroke="none">
<path d="M5525 6641 c-74 -19 -175 -80 -237 -143 -103 -105 -159 -235 -232
-533 -20 -82 -43 -177 -52 -210 -9 -33 -20 -76 -25 -95 -89 -352 -205 -676
-327 -915 -44 -87 -168 -310 -184 -330 -4 -5 -38 -55 -74 -110 -74 -111 -178
-250 -194 -260 -6 -3 -10 -1 -10 5 0 15 -82 122 -133 172 -230 228 -606 388
-1037 444 -30 4 -118 8 -195 9 -354 4 -682 -78 -1029 -257 -320 -164 -529
-351 -625 -559 -30 -64 -74 -204 -85 -269 -20 -122 -57 -216 -111 -280 -46
-55 -58 -85 -51 -126 13 -65 96 -105 208 -99 138 7 258 70 424 222 44 39 93
82 109 94 17 13 35 27 40 32 155 124 500 317 775 432 74 31 144 60 155 65 114
49 443 143 480 136 226 -41 381 -177 390 -341 7 -136 -54 -263 -203 -425 -28
-30 -68 -82 -87 -116 -29 -49 -59 -79 -143 -146 -363 -286 -1098 -808 -1907
-1353 -662 -446 -789 -548 -918 -737 -44 -65 -50 -79 -52 -133 -4 -107 23
-173 100 -249 102 -100 348 -193 585 -221 25 -3 56 -7 70 -10 140 -25 703 -25
861 0 13 2 56 6 94 10 39 4 79 9 90 11 11 2 43 6 70 10 156 17 502 97 690 160
392 129 823 372 1310 738 98 73 336 264 389 311 6 6 45 39 86 75 134 116 171
151 438 415 145 143 266 260 269 260 13 0 112 -201 141 -288 29 -85 35 -108
47 -177 7 -37 6 -234 -1 -315 -5 -60 -18 -138 -38 -234 -32 -147 -119 -303
-225 -404 -108 -102 -214 -153 -473 -227 -144 -41 -184 -59 -248 -114 -71 -61
-189 -117 -274 -130 -21 -4 -41 -8 -45 -10 -3 -2 -31 -7 -61 -11 -30 -3 -75
-9 -99 -12 -68 -8 -147 -11 -354 -13 -197 -2 -247 -10 -296 -50 -29 -25 -50
-84 -44 -124 13 -82 96 -188 162 -206 78 -22 136 -9 340 72 172 68 288 98 401
104 52 2 304 6 560 8 422 3 474 5 560 24 524 112 883 469 1050 1046 132 457
120 849 -38 1196 -23 52 -96 184 -114 205 -4 5 -27 35 -50 65 -83 109 -180
200 -333 316 -11 8 -55 35 -97 60 -43 25 -78 48 -78 50 0 2 11 21 23 42 51 80
146 262 191 367 26 61 52 119 56 130 55 124 146 485 185 730 19 121 37 244 39
270 2 17 7 59 10 95 13 124 15 145 22 245 18 291 3 619 -41 865 -16 89 -45
199 -76 287 -73 208 -196 378 -314 433 -54 24 -157 35 -210 21z"/>
</g>
</svg>
